<svg width="714" height="190" viewBox="0 0 714 190" fill="none" xmlns="http://www.w3.org/2000/svg">
<g clip-path="url(#clip0)">
<path d="M204.488 71.476C200.997 71.476 197.869 70.9093 195.104 69.776C192.339 68.6427 190.117 66.9653 188.44 64.744C186.808 62.5227 185.947 59.848 185.856 56.72H198.232C198.413 58.488 199.025 59.848 200.068 60.8C201.111 61.7067 202.471 62.16 204.148 62.16C205.871 62.16 207.231 61.7747 208.228 61.004C209.225 60.188 209.724 59.0773 209.724 57.672C209.724 56.4933 209.316 55.5187 208.5 54.748C207.729 53.9773 206.755 53.3427 205.576 52.844C204.443 52.3453 202.811 51.7787 200.68 51.144C197.597 50.192 195.081 49.24 193.132 48.288C191.183 47.336 189.505 45.9307 188.1 44.072C186.695 42.2133 185.992 39.788 185.992 36.796C185.992 32.3533 187.601 28.8853 190.82 26.392C194.039 23.8533 198.232 22.584 203.4 22.584C208.659 22.584 212.897 23.8533 216.116 26.392C219.335 28.8853 221.057 32.376 221.284 36.864H208.704C208.613 35.3227 208.047 34.1213 207.004 33.26C205.961 32.3533 204.624 31.9 202.992 31.9C201.587 31.9 200.453 32.2853 199.592 33.056C198.731 33.7813 198.3 34.8467 198.3 36.252C198.3 37.7933 199.025 38.9947 200.476 39.856C201.927 40.7173 204.193 41.6467 207.276 42.644C210.359 43.6867 212.852 44.684 214.756 45.636C216.705 46.588 218.383 47.9707 219.788 49.784C221.193 51.5973 221.896 53.932 221.896 56.788C221.896 59.508 221.193 61.9787 219.788 64.2C218.428 66.4213 216.433 68.1893 213.804 69.504C211.175 70.8187 208.069 71.476 204.488 71.476ZM252.376 32.648C256.728 32.648 260.219 34.0987 262.848 37C265.477 39.856 266.792 43.8 266.792 48.832V71H255.232V50.396C255.232 47.8573 254.575 45.8853 253.26 44.48C251.945 43.0747 250.177 42.372 247.956 42.372C245.735 42.372 243.967 43.0747 242.652 44.48C241.337 45.8853 240.68 47.8573 240.68 50.396V71H229.052V20.68H240.68V38.156C241.859 36.4787 243.468 35.1413 245.508 34.144C247.548 33.1467 249.837 32.648 252.376 32.648ZM292.144 71.544C288.427 71.544 285.072 70.7507 282.08 69.164C279.134 67.5773 276.799 65.3107 275.076 62.364C273.399 59.4173 272.56 55.972 272.56 52.028C272.56 48.1293 273.422 44.7067 275.144 41.76C276.867 38.768 279.224 36.4787 282.216 34.892C285.208 33.3053 288.563 32.512 292.28 32.512C295.998 32.512 299.352 33.3053 302.344 34.892C305.336 36.4787 307.694 38.768 309.416 41.76C311.139 44.7067 312 48.1293 312 52.028C312 55.9267 311.116 59.372 309.348 62.364C307.626 65.3107 305.246 67.5773 302.208 69.164C299.216 70.7507 295.862 71.544 292.144 71.544ZM292.144 61.48C294.366 61.48 296.247 60.664 297.788 59.032C299.375 57.4 300.168 55.0653 300.168 52.028C300.168 48.9907 299.398 46.656 297.856 45.024C296.36 43.392 294.502 42.576 292.28 42.576C290.014 42.576 288.132 43.392 286.636 45.024C285.14 46.6107 284.392 48.9453 284.392 52.028C284.392 55.0653 285.118 57.4 286.568 59.032C288.064 60.664 289.923 61.48 292.144 61.48ZM329.797 38.428C330.93 36.66 332.494 35.232 334.489 34.144C336.484 33.056 338.818 32.512 341.493 32.512C344.621 32.512 347.454 33.3053 349.993 34.892C352.532 36.4787 354.526 38.7453 355.977 41.692C357.473 44.6387 358.221 48.0613 358.221 51.96C358.221 55.8587 357.473 59.304 355.977 62.296C354.526 65.2427 352.532 67.532 349.993 69.164C347.454 70.7507 344.621 71.544 341.493 71.544C338.864 71.544 336.529 71 334.489 69.912C332.494 68.824 330.93 67.4187 329.797 65.696V89.088H318.169V33.056H329.797V38.428ZM346.389 51.96C346.389 49.0587 345.573 46.792 343.941 45.16C342.354 43.4827 340.382 42.644 338.025 42.644C335.713 42.644 333.741 43.4827 332.109 45.16C330.522 46.8373 329.729 49.1267 329.729 52.028C329.729 54.9293 330.522 57.2187 332.109 58.896C333.741 60.5733 335.713 61.412 338.025 61.412C340.337 61.412 342.309 60.5733 343.941 58.896C345.573 57.1733 346.389 54.8613 346.389 51.96ZM370.169 29.112C368.129 29.112 366.452 28.5227 365.137 27.344C363.868 26.12 363.233 24.624 363.233 22.856C363.233 21.0427 363.868 19.5467 365.137 18.368C366.452 17.144 368.129 16.532 370.169 16.532C372.164 16.532 373.796 17.144 375.065 18.368C376.38 19.5467 377.037 21.0427 377.037 22.856C377.037 24.624 376.38 26.12 375.065 27.344C373.796 28.5227 372.164 29.112 370.169 29.112ZM375.949 33.056V71H364.321V33.056H375.949ZM403.416 42.712H397.16V71H385.532V42.712H381.316V33.056H385.532V31.968C385.532 27.2987 386.869 23.7627 389.544 21.36C392.219 18.912 396.14 17.688 401.308 17.688C402.169 17.688 402.804 17.7107 403.212 17.756V27.616C400.991 27.48 399.427 27.7973 398.52 28.568C397.613 29.3387 397.16 30.7213 397.16 32.716V33.056H403.416V42.712ZM447.64 33.056L423.84 89.02H411.328L420.032 69.708L404.596 33.056H417.584L426.356 56.788L435.06 33.056H447.64ZM221.556 101.264V110.58H208.908V149H197.28V110.58H184.632V101.264H221.556ZM250.716 110.648C255.068 110.648 258.558 112.099 261.188 115C263.817 117.856 265.132 121.8 265.132 126.832V149H253.572V128.396C253.572 125.857 252.914 123.885 251.6 122.48C250.285 121.075 248.517 120.372 246.296 120.372C244.074 120.372 242.306 121.075 240.992 122.48C239.677 123.885 239.02 125.857 239.02 128.396V149H227.392V98.68H239.02V116.156C240.198 114.479 241.808 113.141 243.848 112.144C245.888 111.147 248.177 110.648 250.716 110.648ZM308.98 129.416C308.98 130.504 308.912 131.637 308.776 132.816H282.46C282.641 135.173 283.389 136.987 284.704 138.256C286.064 139.48 287.719 140.092 289.668 140.092C292.569 140.092 294.587 138.868 295.72 136.42H308.096C307.461 138.913 306.305 141.157 304.628 143.152C302.996 145.147 300.933 146.711 298.44 147.844C295.947 148.977 293.159 149.544 290.076 149.544C286.359 149.544 283.049 148.751 280.148 147.164C277.247 145.577 274.98 143.311 273.348 140.364C271.716 137.417 270.9 133.972 270.9 130.028C270.9 126.084 271.693 122.639 273.28 119.692C274.912 116.745 277.179 114.479 280.08 112.892C282.981 111.305 286.313 110.512 290.076 110.512C293.748 110.512 297.012 111.283 299.868 112.824C302.724 114.365 304.945 116.564 306.532 119.42C308.164 122.276 308.98 125.608 308.98 129.416ZM297.08 126.356C297.08 124.361 296.4 122.775 295.04 121.596C293.68 120.417 291.98 119.828 289.94 119.828C287.991 119.828 286.336 120.395 284.976 121.528C283.661 122.661 282.845 124.271 282.528 126.356H297.08ZM363.53 110.648C368.245 110.648 371.985 112.076 374.75 114.932C377.561 117.788 378.966 121.755 378.966 126.832V149H367.406V128.396C367.406 125.948 366.749 124.067 365.434 122.752C364.165 121.392 362.397 120.712 360.13 120.712C357.864 120.712 356.073 121.392 354.758 122.752C353.489 124.067 352.854 125.948 352.854 128.396V149H341.294V128.396C341.294 125.948 340.637 124.067 339.322 122.752C338.053 121.392 336.285 120.712 334.018 120.712C331.752 120.712 329.961 121.392 328.646 122.752C327.377 124.067 326.742 125.948 326.742 128.396V149H315.114V111.056H326.742V115.816C327.921 114.229 329.462 112.983 331.366 112.076C333.27 111.124 335.424 110.648 337.826 110.648C340.682 110.648 343.221 111.26 345.442 112.484C347.709 113.708 349.477 115.453 350.746 117.72C352.061 115.635 353.852 113.935 356.118 112.62C358.385 111.305 360.856 110.648 363.53 110.648ZM422.867 129.416C422.867 130.504 422.799 131.637 422.663 132.816H396.347C396.528 135.173 397.276 136.987 398.591 138.256C399.951 139.48 401.605 140.092 403.555 140.092C406.456 140.092 408.473 138.868 409.607 136.42H421.983C421.348 138.913 420.192 141.157 418.515 143.152C416.883 145.147 414.82 146.711 412.327 147.844C409.833 148.977 407.045 149.544 403.963 149.544C400.245 149.544 396.936 148.751 394.035 147.164C391.133 145.577 388.867 143.311 387.235 140.364C385.603 137.417 384.787 133.972 384.787 130.028C384.787 126.084 385.58 122.639 387.167 119.692C388.799 116.745 391.065 114.479 393.967 112.892C396.868 111.305 400.2 110.512 403.963 110.512C407.635 110.512 410.899 111.283 413.755 112.824C416.611 114.365 418.832 116.564 420.419 119.42C422.051 122.276 422.867 125.608 422.867 129.416ZM410.967 126.356C410.967 124.361 410.287 122.775 408.927 121.596C407.567 120.417 405.867 119.828 403.827 119.828C401.877 119.828 400.223 120.395 398.863 121.528C397.548 122.661 396.732 124.271 396.415 126.356H410.967ZM455.039 140.024H470.271V149H443.411V101.264H455.039V140.024ZM473.506 129.96C473.506 126.061 474.231 122.639 475.682 119.692C477.178 116.745 479.195 114.479 481.734 112.892C484.272 111.305 487.106 110.512 490.234 110.512C492.908 110.512 495.243 111.056 497.238 112.144C499.278 113.232 500.842 114.66 501.93 116.428V111.056H513.558V149H501.93V143.628C500.796 145.396 499.21 146.824 497.17 147.912C495.175 149 492.84 149.544 490.166 149.544C487.083 149.544 484.272 148.751 481.734 147.164C479.195 145.532 477.178 143.243 475.682 140.296C474.231 137.304 473.506 133.859 473.506 129.96ZM501.93 130.028C501.93 127.127 501.114 124.837 499.482 123.16C497.895 121.483 495.946 120.644 493.634 120.644C491.322 120.644 489.35 121.483 487.718 123.16C486.131 124.792 485.338 127.059 485.338 129.96C485.338 132.861 486.131 135.173 487.718 136.896C489.35 138.573 491.322 139.412 493.634 139.412C495.946 139.412 497.895 138.573 499.482 136.896C501.114 135.219 501.93 132.929 501.93 130.028ZM533.598 116.428C534.686 114.66 536.25 113.232 538.29 112.144C540.33 111.056 542.665 110.512 545.294 110.512C548.422 110.512 551.255 111.305 553.794 112.892C556.333 114.479 558.327 116.745 559.778 119.692C561.274 122.639 562.022 126.061 562.022 129.96C562.022 133.859 561.274 137.304 559.778 140.296C558.327 143.243 556.333 145.532 553.794 147.164C551.255 148.751 548.422 149.544 545.294 149.544C542.619 149.544 540.285 149.023 538.29 147.98C536.295 146.892 534.731 145.464 533.598 143.696V149H521.97V98.68H533.598V116.428ZM550.19 129.96C550.19 127.059 549.374 124.792 547.742 123.16C546.155 121.483 544.183 120.644 541.826 120.644C539.514 120.644 537.542 121.483 535.91 123.16C534.323 124.837 533.53 127.127 533.53 130.028C533.53 132.929 534.323 135.219 535.91 136.896C537.542 138.573 539.514 139.412 541.826 139.412C544.138 139.412 546.11 138.573 547.742 136.896C549.374 135.173 550.19 132.861 550.19 129.96ZM594.16 101.264V149H582.532V101.264H594.16ZM600.207 110.172V99.36H619.043V149H606.939V110.172H600.207ZM635.158 122.344C630.896 120.077 628.766 116.519 628.766 111.668C628.766 109.22 629.4 106.999 630.67 105.004C631.939 102.964 633.866 101.355 636.45 100.176C639.034 98.952 642.207 98.34 645.97 98.34C649.732 98.34 652.883 98.952 655.422 100.176C658.006 101.355 659.932 102.964 661.202 105.004C662.471 106.999 663.106 109.22 663.106 111.668C663.106 114.116 662.516 116.247 661.338 118.06C660.204 119.873 658.663 121.301 656.714 122.344C659.162 123.523 661.043 125.155 662.357 127.24C663.672 129.28 664.33 131.683 664.33 134.448C664.33 137.667 663.514 140.455 661.882 142.812C660.25 145.124 658.028 146.892 655.218 148.116C652.452 149.34 649.37 149.952 645.97 149.952C642.57 149.952 639.464 149.34 636.654 148.116C633.888 146.892 631.69 145.124 630.058 142.812C628.426 140.455 627.61 137.667 627.61 134.448C627.61 131.637 628.267 129.212 629.582 127.172C630.896 125.087 632.755 123.477 635.158 122.344ZM651.818 113.436C651.818 111.577 651.274 110.149 650.186 109.152C649.143 108.109 647.738 107.588 645.97 107.588C644.202 107.588 642.774 108.109 641.686 109.152C640.643 110.195 640.122 111.645 640.122 113.504C640.122 115.272 640.666 116.677 641.754 117.72C642.842 118.717 644.247 119.216 645.97 119.216C647.692 119.216 649.098 118.695 650.186 117.652C651.274 116.609 651.818 115.204 651.818 113.436ZM645.97 127.376C643.839 127.376 642.116 127.965 640.802 129.144C639.487 130.277 638.83 131.864 638.83 133.904C638.83 135.808 639.464 137.372 640.734 138.596C642.048 139.82 643.794 140.432 645.97 140.432C648.146 140.432 649.846 139.82 651.07 138.596C652.339 137.372 652.974 135.808 652.974 133.904C652.974 131.909 652.316 130.323 651.002 129.144C649.732 127.965 648.055 127.376 645.97 127.376ZM695.367 110.648C699.81 110.648 703.346 112.099 705.975 115C708.65 117.856 709.987 121.8 709.987 126.832V149H698.427V128.396C698.427 125.857 697.77 123.885 696.455 122.48C695.141 121.075 693.373 120.372 691.151 120.372C688.93 120.372 687.162 121.075 685.847 122.48C684.533 123.885 683.875 125.857 683.875 128.396V149H672.247V111.056H683.875V116.088C685.054 114.411 686.641 113.096 688.635 112.144C690.63 111.147 692.874 110.648 695.367 110.648Z" fill="#6E78FF"/>
<g filter="url(#filter0_d)">
<path d="M36 134.387C36 126.812 41.7894 120.492 49.3359 119.83L93 116L120.441 113.352C121.146 113.284 121.845 113.162 122.531 112.987L129.605 111.185C137.407 109.198 144.244 116.766 141.478 124.327V124.327C140.839 126.074 139.725 127.609 138.262 128.759L127.528 137.192C126.844 137.73 126.117 138.211 125.354 138.63L110.101 147.019C107.739 148.319 105.086 149 102.39 149H50.6129C42.5424 149 36 142.458 36 134.387V134.387Z" fill="#6E78FF"/>
</g>
<path d="M61.0386 22.2901C69.4592 18.7976 78.4838 17 87.5979 17C106.004 17 123.657 24.322 136.672 37.3552C149.688 50.3884 157 68.0652 157 86.4969C157 104.929 149.688 122.605 136.672 135.639C123.657 148.672 106.004 155.994 87.5979 155.994H25.1357C23.7617 156.052 22.4015 155.7 21.2274 154.982C20.0537 154.264 19.1192 153.213 18.5425 151.963C18.0111 150.697 17.8661 149.303 18.1251 147.954C18.3846 146.606 19.037 145.365 20.0001 144.388L33.8805 130.488C23.6841 118.108 18.1348 102.545 18.1958 86.4969C18.1958 68.0652 25.5078 50.3884 38.5229 37.3552C44.9675 30.9018 52.6184 25.7827 61.0386 22.2901Z" fill="#6E78FF"/>
<path d="M126.228 73.2711C126.228 73.2711 126.228 73.2711 126.228 73.0672C123.357 65.2223 118.149 58.4492 111.307 53.6641C104.464 48.879 96.3191 46.3129 87.9724 46.3129C79.6256 46.3129 71.4803 48.879 64.6382 53.6641C57.7961 58.4492 52.5874 65.2223 49.7168 73.0672C49.7168 73.0672 49.7168 73.0672 49.7168 73.2711C46.5111 82.1238 46.5111 91.8218 49.7168 100.674C49.7168 100.674 49.7168 100.674 49.7168 100.878C52.5874 108.723 57.7961 115.496 64.6382 120.281C71.4803 125.067 79.6256 127.633 87.9724 127.633C96.3191 127.633 104.464 125.067 111.307 120.281C118.149 115.496 123.357 108.723 126.228 100.878C126.228 100.878 126.228 100.878 126.228 100.674C129.434 91.8218 129.434 82.1238 126.228 73.2711V73.2711ZM56.3576 95.1285C54.9448 89.7833 54.9448 84.1623 56.3576 78.817H63.9353C63.2836 84.2346 63.2836 89.7109 63.9353 95.1285H56.3576ZM59.6983 103.284H65.402C66.3583 106.921 67.7251 110.437 69.4761 113.764C65.4806 111.04 62.1407 107.46 59.6983 103.284ZM65.402 70.6613H59.6983C62.1056 66.4981 65.4028 62.9193 69.3539 60.1811C67.645 63.5137 66.3193 67.0296 65.402 70.6613V70.6613ZM83.8168 118.372C78.8129 114.697 75.2985 109.341 73.9168 103.284H83.8168V118.372ZM83.8168 95.1285H72.165C71.4047 89.718 71.4047 84.2276 72.165 78.817H83.8168V95.1285ZM83.8168 70.6613H73.9168C75.2985 64.6047 78.8129 59.2486 83.8168 55.5731V70.6613ZM116.083 70.6613H110.38C109.423 67.0244 108.057 63.5084 106.306 60.1811C110.301 62.9054 113.641 66.4853 116.083 70.6613ZM91.9649 55.5731C96.9689 59.2486 100.483 64.6047 101.865 70.6613H91.9649V55.5731ZM91.9649 118.372V103.284H101.865C100.483 109.341 96.9689 114.697 91.9649 118.372V118.372ZM103.617 95.1285H91.9649V78.817H103.617C104.377 84.2276 104.377 89.718 103.617 95.1285ZM106.428 113.764C108.179 110.437 109.546 106.921 110.502 103.284H116.206C113.763 107.46 110.423 111.04 106.428 113.764ZM119.424 95.1285H111.846C112.178 92.4227 112.341 89.6989 112.335 86.9728C112.34 84.2467 112.177 81.523 111.846 78.817H119.424C120.837 84.1623 120.837 89.7833 119.424 95.1285Z" fill="white"/>
</g>
<defs>
<filter id="filter0_d" x="6" y="95.8638" width="166.104" height="98.1362" filterUnits="userSpaceOnUse" color-interpolation-filters="sRGB">
<feFlood flood-opacity="0" result="BackgroundImageFix"/>
<feColorMatrix in="SourceAlpha" type="matrix" values="0 0 0 0 0 0 0 0 0 0 0 0 0 0 0 0 0 0 127 0"/>
<feOffset dy="15"/>
<feGaussianBlur stdDeviation="15"/>
<feColorMatrix type="matrix" values="0 0 0 0 0 0 0 0 0 0.0839841 0 0 0 0 1 0 0 0 0.4 0"/>
<feBlend mode="normal" in2="BackgroundImageFix" result="effect1_dropShadow"/>
<feBlend mode="normal" in="SourceGraphic" in2="effect1_dropShadow" result="shape"/>
</filter>
<clipPath id="clip0">
<rect width="714" height="190" fill="white"/>
</clipPath>
</defs>
</svg>
