<svg width="837" height="190" viewBox="0 0 837 190" fill="none" xmlns="http://www.w3.org/2000/svg">
<g clip-path="url(#clip0)">
<path d="M204.488 71.476C200.997 71.476 197.869 70.9093 195.104 69.776C192.339 68.6427 190.117 66.9653 188.44 64.744C186.808 62.5227 185.947 59.848 185.856 56.72H198.232C198.413 58.488 199.025 59.848 200.068 60.8C201.111 61.7067 202.471 62.16 204.148 62.16C205.871 62.16 207.231 61.7747 208.228 61.004C209.225 60.188 209.724 59.0773 209.724 57.672C209.724 56.4933 209.316 55.5187 208.5 54.748C207.729 53.9773 206.755 53.3427 205.576 52.844C204.443 52.3453 202.811 51.7787 200.68 51.144C197.597 50.192 195.081 49.24 193.132 48.288C191.183 47.336 189.505 45.9307 188.1 44.072C186.695 42.2133 185.992 39.788 185.992 36.796C185.992 32.3533 187.601 28.8853 190.82 26.392C194.039 23.8533 198.232 22.584 203.4 22.584C208.659 22.584 212.897 23.8533 216.116 26.392C219.335 28.8853 221.057 32.376 221.284 36.864H208.704C208.613 35.3227 208.047 34.1213 207.004 33.26C205.961 32.3533 204.624 31.9 202.992 31.9C201.587 31.9 200.453 32.2853 199.592 33.056C198.731 33.7813 198.3 34.8467 198.3 36.252C198.3 37.7933 199.025 38.9947 200.476 39.856C201.927 40.7173 204.193 41.6467 207.276 42.644C210.359 43.6867 212.852 44.684 214.756 45.636C216.705 46.588 218.383 47.9707 219.788 49.784C221.193 51.5973 221.896 53.932 221.896 56.788C221.896 59.508 221.193 61.9787 219.788 64.2C218.428 66.4213 216.433 68.1893 213.804 69.504C211.175 70.8187 208.069 71.476 204.488 71.476ZM252.376 32.648C256.728 32.648 260.219 34.0987 262.848 37C265.477 39.856 266.792 43.8 266.792 48.832V71H255.232V50.396C255.232 47.8573 254.575 45.8853 253.26 44.48C251.945 43.0747 250.177 42.372 247.956 42.372C245.735 42.372 243.967 43.0747 242.652 44.48C241.337 45.8853 240.68 47.8573 240.68 50.396V71H229.052V20.68H240.68V38.156C241.859 36.4787 243.468 35.1413 245.508 34.144C247.548 33.1467 249.837 32.648 252.376 32.648ZM292.144 71.544C288.427 71.544 285.072 70.7507 282.08 69.164C279.134 67.5773 276.799 65.3107 275.076 62.364C273.399 59.4173 272.56 55.972 272.56 52.028C272.56 48.1293 273.422 44.7067 275.144 41.76C276.867 38.768 279.224 36.4787 282.216 34.892C285.208 33.3053 288.563 32.512 292.28 32.512C295.998 32.512 299.352 33.3053 302.344 34.892C305.336 36.4787 307.694 38.768 309.416 41.76C311.139 44.7067 312 48.1293 312 52.028C312 55.9267 311.116 59.372 309.348 62.364C307.626 65.3107 305.246 67.5773 302.208 69.164C299.216 70.7507 295.862 71.544 292.144 71.544ZM292.144 61.48C294.366 61.48 296.247 60.664 297.788 59.032C299.375 57.4 300.168 55.0653 300.168 52.028C300.168 48.9907 299.398 46.656 297.856 45.024C296.36 43.392 294.502 42.576 292.28 42.576C290.014 42.576 288.132 43.392 286.636 45.024C285.14 46.6107 284.392 48.9453 284.392 52.028C284.392 55.0653 285.118 57.4 286.568 59.032C288.064 60.664 289.923 61.48 292.144 61.48ZM329.797 38.428C330.93 36.66 332.494 35.232 334.489 34.144C336.484 33.056 338.818 32.512 341.493 32.512C344.621 32.512 347.454 33.3053 349.993 34.892C352.532 36.4787 354.526 38.7453 355.977 41.692C357.473 44.6387 358.221 48.0613 358.221 51.96C358.221 55.8587 357.473 59.304 355.977 62.296C354.526 65.2427 352.532 67.532 349.993 69.164C347.454 70.7507 344.621 71.544 341.493 71.544C338.864 71.544 336.529 71 334.489 69.912C332.494 68.824 330.93 67.4187 329.797 65.696V89.088H318.169V33.056H329.797V38.428ZM346.389 51.96C346.389 49.0587 345.573 46.792 343.941 45.16C342.354 43.4827 340.382 42.644 338.025 42.644C335.713 42.644 333.741 43.4827 332.109 45.16C330.522 46.8373 329.729 49.1267 329.729 52.028C329.729 54.9293 330.522 57.2187 332.109 58.896C333.741 60.5733 335.713 61.412 338.025 61.412C340.337 61.412 342.309 60.5733 343.941 58.896C345.573 57.1733 346.389 54.8613 346.389 51.96ZM370.169 29.112C368.129 29.112 366.452 28.5227 365.137 27.344C363.868 26.12 363.233 24.624 363.233 22.856C363.233 21.0427 363.868 19.5467 365.137 18.368C366.452 17.144 368.129 16.532 370.169 16.532C372.164 16.532 373.796 17.144 375.065 18.368C376.38 19.5467 377.037 21.0427 377.037 22.856C377.037 24.624 376.38 26.12 375.065 27.344C373.796 28.5227 372.164 29.112 370.169 29.112ZM375.949 33.056V71H364.321V33.056H375.949ZM403.416 42.712H397.16V71H385.532V42.712H381.316V33.056H385.532V31.968C385.532 27.2987 386.869 23.7627 389.544 21.36C392.219 18.912 396.14 17.688 401.308 17.688C402.169 17.688 402.804 17.7107 403.212 17.756V27.616C400.991 27.48 399.427 27.7973 398.52 28.568C397.613 29.3387 397.16 30.7213 397.16 32.716V33.056H403.416V42.712ZM447.64 33.056L423.84 89.02H411.328L420.032 69.708L404.596 33.056H417.584L426.356 56.788L435.06 33.056H447.64ZM221.556 101.264V110.58H208.908V149H197.28V110.58H184.632V101.264H221.556ZM250.716 110.648C255.068 110.648 258.558 112.099 261.188 115C263.817 117.856 265.132 121.8 265.132 126.832V149H253.572V128.396C253.572 125.857 252.914 123.885 251.6 122.48C250.285 121.075 248.517 120.372 246.296 120.372C244.074 120.372 242.306 121.075 240.992 122.48C239.677 123.885 239.02 125.857 239.02 128.396V149H227.392V98.68H239.02V116.156C240.198 114.479 241.808 113.141 243.848 112.144C245.888 111.147 248.177 110.648 250.716 110.648ZM308.98 129.416C308.98 130.504 308.912 131.637 308.776 132.816H282.46C282.641 135.173 283.389 136.987 284.704 138.256C286.064 139.48 287.719 140.092 289.668 140.092C292.569 140.092 294.587 138.868 295.72 136.42H308.096C307.461 138.913 306.305 141.157 304.628 143.152C302.996 145.147 300.933 146.711 298.44 147.844C295.947 148.977 293.159 149.544 290.076 149.544C286.359 149.544 283.049 148.751 280.148 147.164C277.247 145.577 274.98 143.311 273.348 140.364C271.716 137.417 270.9 133.972 270.9 130.028C270.9 126.084 271.693 122.639 273.28 119.692C274.912 116.745 277.179 114.479 280.08 112.892C282.981 111.305 286.313 110.512 290.076 110.512C293.748 110.512 297.012 111.283 299.868 112.824C302.724 114.365 304.945 116.564 306.532 119.42C308.164 122.276 308.98 125.608 308.98 129.416ZM297.08 126.356C297.08 124.361 296.4 122.775 295.04 121.596C293.68 120.417 291.98 119.828 289.94 119.828C287.991 119.828 286.336 120.395 284.976 121.528C283.661 122.661 282.845 124.271 282.528 126.356H297.08ZM363.53 110.648C368.245 110.648 371.985 112.076 374.75 114.932C377.561 117.788 378.966 121.755 378.966 126.832V149H367.406V128.396C367.406 125.948 366.749 124.067 365.434 122.752C364.165 121.392 362.397 120.712 360.13 120.712C357.864 120.712 356.073 121.392 354.758 122.752C353.489 124.067 352.854 125.948 352.854 128.396V149H341.294V128.396C341.294 125.948 340.637 124.067 339.322 122.752C338.053 121.392 336.285 120.712 334.018 120.712C331.752 120.712 329.961 121.392 328.646 122.752C327.377 124.067 326.742 125.948 326.742 128.396V149H315.114V111.056H326.742V115.816C327.921 114.229 329.462 112.983 331.366 112.076C333.27 111.124 335.424 110.648 337.826 110.648C340.682 110.648 343.221 111.26 345.442 112.484C347.709 113.708 349.477 115.453 350.746 117.72C352.061 115.635 353.852 113.935 356.118 112.62C358.385 111.305 360.856 110.648 363.53 110.648ZM422.867 129.416C422.867 130.504 422.799 131.637 422.663 132.816H396.347C396.528 135.173 397.276 136.987 398.591 138.256C399.951 139.48 401.605 140.092 403.555 140.092C406.456 140.092 408.473 138.868 409.607 136.42H421.983C421.348 138.913 420.192 141.157 418.515 143.152C416.883 145.147 414.82 146.711 412.327 147.844C409.833 148.977 407.045 149.544 403.963 149.544C400.245 149.544 396.936 148.751 394.035 147.164C391.133 145.577 388.867 143.311 387.235 140.364C385.603 137.417 384.787 133.972 384.787 130.028C384.787 126.084 385.58 122.639 387.167 119.692C388.799 116.745 391.065 114.479 393.967 112.892C396.868 111.305 400.2 110.512 403.963 110.512C407.635 110.512 410.899 111.283 413.755 112.824C416.611 114.365 418.832 116.564 420.419 119.42C422.051 122.276 422.867 125.608 422.867 129.416ZM410.967 126.356C410.967 124.361 410.287 122.775 408.927 121.596C407.567 120.417 405.867 119.828 403.827 119.828C401.877 119.828 400.223 120.395 398.863 121.528C397.548 122.661 396.732 124.271 396.415 126.356H410.967ZM455.039 140.024H470.271V149H443.411V101.264H455.039V140.024ZM473.506 129.96C473.506 126.061 474.231 122.639 475.682 119.692C477.178 116.745 479.195 114.479 481.734 112.892C484.272 111.305 487.106 110.512 490.234 110.512C492.908 110.512 495.243 111.056 497.238 112.144C499.278 113.232 500.842 114.66 501.93 116.428V111.056H513.558V149H501.93V143.628C500.796 145.396 499.21 146.824 497.17 147.912C495.175 149 492.84 149.544 490.166 149.544C487.083 149.544 484.272 148.751 481.734 147.164C479.195 145.532 477.178 143.243 475.682 140.296C474.231 137.304 473.506 133.859 473.506 129.96ZM501.93 130.028C501.93 127.127 501.114 124.837 499.482 123.16C497.895 121.483 495.946 120.644 493.634 120.644C491.322 120.644 489.35 121.483 487.718 123.16C486.131 124.792 485.338 127.059 485.338 129.96C485.338 132.861 486.131 135.173 487.718 136.896C489.35 138.573 491.322 139.412 493.634 139.412C495.946 139.412 497.895 138.573 499.482 136.896C501.114 135.219 501.93 132.929 501.93 130.028ZM533.598 116.428C534.686 114.66 536.25 113.232 538.29 112.144C540.33 111.056 542.665 110.512 545.294 110.512C548.422 110.512 551.255 111.305 553.794 112.892C556.333 114.479 558.327 116.745 559.778 119.692C561.274 122.639 562.022 126.061 562.022 129.96C562.022 133.859 561.274 137.304 559.778 140.296C558.327 143.243 556.333 145.532 553.794 147.164C551.255 148.751 548.422 149.544 545.294 149.544C542.619 149.544 540.285 149.023 538.29 147.98C536.295 146.892 534.731 145.464 533.598 143.696V149H521.97V98.68H533.598V116.428ZM550.19 129.96C550.19 127.059 549.374 124.792 547.742 123.16C546.155 121.483 544.183 120.644 541.826 120.644C539.514 120.644 537.542 121.483 535.91 123.16C534.323 124.837 533.53 127.127 533.53 130.028C533.53 132.929 534.323 135.219 535.91 136.896C537.542 138.573 539.514 139.412 541.826 139.412C544.138 139.412 546.11 138.573 547.742 136.896C549.374 135.173 550.19 132.861 550.19 129.96ZM618.912 116.632C618.912 119.397 618.278 121.936 617.008 124.248C615.739 126.515 613.79 128.351 611.16 129.756C608.531 131.161 605.267 131.864 601.368 131.864H594.16V149H582.532V101.264H601.368C605.176 101.264 608.395 101.921 611.024 103.236C613.654 104.551 615.626 106.364 616.94 108.676C618.255 110.988 618.912 113.64 618.912 116.632ZM600.484 122.616C602.706 122.616 604.36 122.095 605.448 121.052C606.536 120.009 607.08 118.536 607.08 116.632C607.08 114.728 606.536 113.255 605.448 112.212C604.36 111.169 602.706 110.648 600.484 110.648H594.16V122.616H600.484ZM636.594 98.68V149H624.966V98.68H636.594ZM682.489 111.056V149H670.861V143.832C669.682 145.509 668.073 146.869 666.033 147.912C664.038 148.909 661.817 149.408 659.369 149.408C656.467 149.408 653.906 148.773 651.685 147.504C649.463 146.189 647.741 144.308 646.517 141.86C645.293 139.412 644.681 136.533 644.681 133.224V111.056H656.241V131.66C656.241 134.199 656.898 136.171 658.213 137.576C659.527 138.981 661.295 139.684 663.517 139.684C665.783 139.684 667.574 138.981 668.889 137.576C670.203 136.171 670.861 134.199 670.861 131.66V111.056H682.489ZM705.257 110.512C707.932 110.512 710.266 111.056 712.261 112.144C714.301 113.232 715.865 114.66 716.953 116.428V111.056H728.581V148.932C728.581 152.423 727.878 155.573 726.473 158.384C725.113 161.24 723.005 163.507 720.149 165.184C717.338 166.861 713.825 167.7 709.609 167.7C703.988 167.7 699.432 166.363 695.941 163.688C692.45 161.059 690.456 157.477 689.957 152.944H701.449C701.812 154.395 702.673 155.528 704.033 156.344C705.393 157.205 707.07 157.636 709.065 157.636C711.468 157.636 713.372 156.933 714.777 155.528C716.228 154.168 716.953 151.969 716.953 148.932V143.56C715.82 145.328 714.256 146.779 712.261 147.912C710.266 149 707.932 149.544 705.257 149.544C702.129 149.544 699.296 148.751 696.757 147.164C694.218 145.532 692.201 143.243 690.705 140.296C689.254 137.304 688.529 133.859 688.529 129.96C688.529 126.061 689.254 122.639 690.705 119.692C692.201 116.745 694.218 114.479 696.757 112.892C699.296 111.305 702.129 110.512 705.257 110.512ZM716.953 130.028C716.953 127.127 716.137 124.837 714.505 123.16C712.918 121.483 710.969 120.644 708.657 120.644C706.345 120.644 704.373 121.483 702.741 123.16C701.154 124.792 700.361 127.059 700.361 129.96C700.361 132.861 701.154 135.173 702.741 136.896C704.373 138.573 706.345 139.412 708.657 139.412C710.969 139.412 712.918 138.573 714.505 136.896C716.137 135.219 716.953 132.929 716.953 130.028ZM742.841 107.112C740.801 107.112 739.124 106.523 737.809 105.344C736.54 104.12 735.905 102.624 735.905 100.856C735.905 99.0427 736.54 97.5467 737.809 96.368C739.124 95.144 740.801 94.532 742.841 94.532C744.836 94.532 746.468 95.144 747.737 96.368C749.052 97.5467 749.709 99.0427 749.709 100.856C749.709 102.624 749.052 104.12 747.737 105.344C746.468 106.523 744.836 107.112 742.841 107.112ZM748.621 111.056V149H736.993V111.056H748.621ZM780.168 110.648C784.611 110.648 788.147 112.099 790.776 115C793.451 117.856 794.788 121.8 794.788 126.832V149H783.228V128.396C783.228 125.857 782.571 123.885 781.256 122.48C779.941 121.075 778.173 120.372 775.952 120.372C773.731 120.372 771.963 121.075 770.648 122.48C769.333 123.885 768.676 125.857 768.676 128.396V149H757.048V111.056H768.676V116.088C769.855 114.411 771.441 113.096 773.436 112.144C775.431 111.147 777.675 110.648 780.168 110.648ZM818.304 149.544C814.995 149.544 812.048 148.977 809.464 147.844C806.88 146.711 804.84 145.169 803.344 143.22C801.848 141.225 801.01 139.004 800.828 136.556H812.32C812.456 137.871 813.068 138.936 814.156 139.752C815.244 140.568 816.582 140.976 818.168 140.976C819.619 140.976 820.73 140.704 821.5 140.16C822.316 139.571 822.724 138.823 822.724 137.916C822.724 136.828 822.158 136.035 821.024 135.536C819.891 134.992 818.055 134.403 815.516 133.768C812.796 133.133 810.53 132.476 808.716 131.796C806.903 131.071 805.339 129.96 804.024 128.464C802.71 126.923 802.052 124.86 802.052 122.276C802.052 120.1 802.642 118.128 803.82 116.36C805.044 114.547 806.812 113.119 809.124 112.076C811.482 111.033 814.27 110.512 817.488 110.512C822.248 110.512 825.988 111.691 828.708 114.048C831.474 116.405 833.06 119.533 833.468 123.432H822.724C822.543 122.117 821.954 121.075 820.956 120.304C820.004 119.533 818.735 119.148 817.148 119.148C815.788 119.148 814.746 119.42 814.02 119.964C813.295 120.463 812.932 121.165 812.932 122.072C812.932 123.16 813.499 123.976 814.632 124.52C815.811 125.064 817.624 125.608 820.072 126.152C822.883 126.877 825.172 127.603 826.94 128.328C828.708 129.008 830.25 130.141 831.564 131.728C832.924 133.269 833.627 135.355 833.672 137.984C833.672 140.205 833.038 142.2 831.768 143.968C830.544 145.691 828.754 147.051 826.396 148.048C824.084 149.045 821.387 149.544 818.304 149.544Z" fill="#6E78FF"/>
<g filter="url(#filter0_d)">
<path d="M37 122.887C37 115.312 42.7894 108.992 50.3359 108.33L94 104.5L121.441 101.852C122.146 101.784 122.845 101.662 123.531 101.487L130.605 99.6855C138.407 97.6982 145.244 105.266 142.478 112.827V112.827C141.839 114.574 140.725 116.109 139.262 117.259L128.528 125.692C127.844 126.23 127.117 126.711 126.354 127.13L111.101 135.519C108.739 136.819 106.086 137.5 103.39 137.5H51.6129C43.5424 137.5 37 130.958 37 122.887V122.887Z" fill="#6E78FF"/>
</g>
<g filter="url(#filter1_d)">
<rect x="27" y="122" width="120" height="28" rx="14" fill="#6E78FF"/>
</g>
<rect x="18" y="18" width="139" height="139" rx="8" fill="#6E78FF"/>
<path d="M119.438 60.2H105.75V46.55C105.75 45.3433 105.269 44.186 104.414 43.3327C103.558 42.4794 102.398 42 101.188 42C99.9774 42 98.817 42.4794 97.9613 43.3327C97.1057 44.186 96.625 45.3433 96.625 46.55V60.2H78.375V46.55C78.375 45.3433 77.8943 44.186 77.0387 43.3327C76.183 42.4794 75.0226 42 73.8125 42C72.6024 42 71.442 42.4794 70.5863 43.3327C69.7307 44.186 69.25 45.3433 69.25 46.55V60.2H55.5625C54.3524 60.2 53.192 60.6794 52.3363 61.5327C51.4807 62.386 51 63.5433 51 64.75C51 65.9567 51.4807 67.114 52.3363 67.9673C53.192 68.8206 54.3524 69.3 55.5625 69.3H60.125V92.05C60.1215 92.6488 60.2366 93.2424 60.4637 93.7968C60.6907 94.3511 61.0253 94.8554 61.4481 95.2805L73.8125 107.566V128.45C73.8125 129.657 74.2932 130.814 75.1488 131.667C76.0045 132.521 77.1649 133 78.375 133C79.5851 133 80.7455 132.521 81.6012 131.667C82.4568 130.814 82.9375 129.657 82.9375 128.45V110.25H92.0625V128.45C92.0625 129.657 92.5432 130.814 93.3988 131.667C94.2545 132.521 95.4149 133 96.625 133C97.8351 133 98.9955 132.521 99.8512 131.667C100.707 130.814 101.188 129.657 101.188 128.45V107.566L113.552 95.2805C113.975 94.8554 114.309 94.3511 114.536 93.7968C114.763 93.2424 114.878 92.6488 114.875 92.05V69.3H119.438C120.648 69.3 121.808 68.8206 122.664 67.9673C123.519 67.114 124 65.9567 124 64.75C124 63.5433 123.519 62.386 122.664 61.5327C121.808 60.6794 120.648 60.2 119.438 60.2ZM105.75 90.1845L94.7544 101.15H80.2456L69.25 90.1845V69.3H105.75V90.1845ZM82.9375 92.05H92.0625C93.2726 92.05 94.433 91.5706 95.2887 90.7173C96.1443 89.864 96.625 88.7067 96.625 87.5C96.625 86.2933 96.1443 85.136 95.2887 84.2827C94.433 83.4294 93.2726 82.95 92.0625 82.95H82.9375C81.7274 82.95 80.567 83.4294 79.7113 84.2827C78.8557 85.136 78.375 86.2933 78.375 87.5C78.375 88.7067 78.8557 89.864 79.7113 90.7173C80.567 91.5706 81.7274 92.05 82.9375 92.05V92.05Z" fill="white"/>
</g>
<defs>
<filter id="filter0_d" x="7" y="84.3638" width="166.104" height="98.1362" filterUnits="userSpaceOnUse" color-interpolation-filters="sRGB">
<feFlood flood-opacity="0" result="BackgroundImageFix"/>
<feColorMatrix in="SourceAlpha" type="matrix" values="0 0 0 0 0 0 0 0 0 0 0 0 0 0 0 0 0 0 127 0"/>
<feOffset dy="15"/>
<feGaussianBlur stdDeviation="15"/>
<feColorMatrix type="matrix" values="0 0 0 0 0 0 0 0 0 0.0839841 0 0 0 0 1 0 0 0 0.4 0"/>
<feBlend mode="normal" in2="BackgroundImageFix" result="effect1_dropShadow"/>
<feBlend mode="normal" in="SourceGraphic" in2="effect1_dropShadow" result="shape"/>
</filter>
<filter id="filter1_d" x="-3" y="107" width="180" height="88" filterUnits="userSpaceOnUse" color-interpolation-filters="sRGB">
<feFlood flood-opacity="0" result="BackgroundImageFix"/>
<feColorMatrix in="SourceAlpha" type="matrix" values="0 0 0 0 0 0 0 0 0 0 0 0 0 0 0 0 0 0 127 0"/>
<feOffset dy="15"/>
<feGaussianBlur stdDeviation="15"/>
<feColorMatrix type="matrix" values="0 0 0 0 0 0 0 0 0 0.0839841 0 0 0 0 1 0 0 0 0.4 0"/>
<feBlend mode="normal" in2="BackgroundImageFix" result="effect1_dropShadow"/>
<feBlend mode="normal" in="SourceGraphic" in2="effect1_dropShadow" result="shape"/>
</filter>
<clipPath id="clip0">
<rect width="837" height="190" fill="white"/>
</clipPath>
</defs>
</svg>
