<svg width="892" height="190" viewBox="0 0 892 190" fill="none" xmlns="http://www.w3.org/2000/svg">
<path d="M204.488 71.476C200.997 71.476 197.869 70.9093 195.104 69.776C192.339 68.6427 190.117 66.9653 188.44 64.744C186.808 62.5227 185.947 59.848 185.856 56.72H198.232C198.413 58.488 199.025 59.848 200.068 60.8C201.111 61.7067 202.471 62.16 204.148 62.16C205.871 62.16 207.231 61.7747 208.228 61.004C209.225 60.188 209.724 59.0773 209.724 57.672C209.724 56.4933 209.316 55.5187 208.5 54.748C207.729 53.9773 206.755 53.3427 205.576 52.844C204.443 52.3453 202.811 51.7787 200.68 51.144C197.597 50.192 195.081 49.24 193.132 48.288C191.183 47.336 189.505 45.9307 188.1 44.072C186.695 42.2133 185.992 39.788 185.992 36.796C185.992 32.3533 187.601 28.8853 190.82 26.392C194.039 23.8533 198.232 22.584 203.4 22.584C208.659 22.584 212.897 23.8533 216.116 26.392C219.335 28.8853 221.057 32.376 221.284 36.864H208.704C208.613 35.3227 208.047 34.1213 207.004 33.26C205.961 32.3533 204.624 31.9 202.992 31.9C201.587 31.9 200.453 32.2853 199.592 33.056C198.731 33.7813 198.3 34.8467 198.3 36.252C198.3 37.7933 199.025 38.9947 200.476 39.856C201.927 40.7173 204.193 41.6467 207.276 42.644C210.359 43.6867 212.852 44.684 214.756 45.636C216.705 46.588 218.383 47.9707 219.788 49.784C221.193 51.5973 221.896 53.932 221.896 56.788C221.896 59.508 221.193 61.9787 219.788 64.2C218.428 66.4213 216.433 68.1893 213.804 69.504C211.175 70.8187 208.069 71.476 204.488 71.476ZM252.376 32.648C256.728 32.648 260.219 34.0987 262.848 37C265.477 39.856 266.792 43.8 266.792 48.832V71H255.232V50.396C255.232 47.8573 254.575 45.8853 253.26 44.48C251.945 43.0747 250.177 42.372 247.956 42.372C245.735 42.372 243.967 43.0747 242.652 44.48C241.337 45.8853 240.68 47.8573 240.68 50.396V71H229.052V20.68H240.68V38.156C241.859 36.4787 243.468 35.1413 245.508 34.144C247.548 33.1467 249.837 32.648 252.376 32.648ZM292.144 71.544C288.427 71.544 285.072 70.7507 282.08 69.164C279.134 67.5773 276.799 65.3107 275.076 62.364C273.399 59.4173 272.56 55.972 272.56 52.028C272.56 48.1293 273.422 44.7067 275.144 41.76C276.867 38.768 279.224 36.4787 282.216 34.892C285.208 33.3053 288.563 32.512 292.28 32.512C295.998 32.512 299.352 33.3053 302.344 34.892C305.336 36.4787 307.694 38.768 309.416 41.76C311.139 44.7067 312 48.1293 312 52.028C312 55.9267 311.116 59.372 309.348 62.364C307.626 65.3107 305.246 67.5773 302.208 69.164C299.216 70.7507 295.862 71.544 292.144 71.544ZM292.144 61.48C294.366 61.48 296.247 60.664 297.788 59.032C299.375 57.4 300.168 55.0653 300.168 52.028C300.168 48.9907 299.398 46.656 297.856 45.024C296.36 43.392 294.502 42.576 292.28 42.576C290.014 42.576 288.132 43.392 286.636 45.024C285.14 46.6107 284.392 48.9453 284.392 52.028C284.392 55.0653 285.118 57.4 286.568 59.032C288.064 60.664 289.923 61.48 292.144 61.48ZM329.797 38.428C330.93 36.66 332.494 35.232 334.489 34.144C336.484 33.056 338.818 32.512 341.493 32.512C344.621 32.512 347.454 33.3053 349.993 34.892C352.532 36.4787 354.526 38.7453 355.977 41.692C357.473 44.6387 358.221 48.0613 358.221 51.96C358.221 55.8587 357.473 59.304 355.977 62.296C354.526 65.2427 352.532 67.532 349.993 69.164C347.454 70.7507 344.621 71.544 341.493 71.544C338.864 71.544 336.529 71 334.489 69.912C332.494 68.824 330.93 67.4187 329.797 65.696V89.088H318.169V33.056H329.797V38.428ZM346.389 51.96C346.389 49.0587 345.573 46.792 343.941 45.16C342.354 43.4827 340.382 42.644 338.025 42.644C335.713 42.644 333.741 43.4827 332.109 45.16C330.522 46.8373 329.729 49.1267 329.729 52.028C329.729 54.9293 330.522 57.2187 332.109 58.896C333.741 60.5733 335.713 61.412 338.025 61.412C340.337 61.412 342.309 60.5733 343.941 58.896C345.573 57.1733 346.389 54.8613 346.389 51.96ZM370.169 29.112C368.129 29.112 366.452 28.5227 365.137 27.344C363.868 26.12 363.233 24.624 363.233 22.856C363.233 21.0427 363.868 19.5467 365.137 18.368C366.452 17.144 368.129 16.532 370.169 16.532C372.164 16.532 373.796 17.144 375.065 18.368C376.38 19.5467 377.037 21.0427 377.037 22.856C377.037 24.624 376.38 26.12 375.065 27.344C373.796 28.5227 372.164 29.112 370.169 29.112ZM375.949 33.056V71H364.321V33.056H375.949ZM403.416 42.712H397.16V71H385.532V42.712H381.316V33.056H385.532V31.968C385.532 27.2987 386.869 23.7627 389.544 21.36C392.219 18.912 396.14 17.688 401.308 17.688C402.169 17.688 402.804 17.7107 403.212 17.756V27.616C400.991 27.48 399.427 27.7973 398.52 28.568C397.613 29.3387 397.16 30.7213 397.16 32.716V33.056H403.416V42.712ZM447.64 33.056L423.84 89.02H411.328L420.032 69.708L404.596 33.056H417.584L426.356 56.788L435.06 33.056H447.64ZM221.556 101.264V110.58H208.908V149H197.28V110.58H184.632V101.264H221.556ZM250.716 110.648C255.068 110.648 258.558 112.099 261.188 115C263.817 117.856 265.132 121.8 265.132 126.832V149H253.572V128.396C253.572 125.857 252.914 123.885 251.6 122.48C250.285 121.075 248.517 120.372 246.296 120.372C244.074 120.372 242.306 121.075 240.992 122.48C239.677 123.885 239.02 125.857 239.02 128.396V149H227.392V98.68H239.02V116.156C240.198 114.479 241.808 113.141 243.848 112.144C245.888 111.147 248.177 110.648 250.716 110.648ZM308.98 129.416C308.98 130.504 308.912 131.637 308.776 132.816H282.46C282.641 135.173 283.389 136.987 284.704 138.256C286.064 139.48 287.719 140.092 289.668 140.092C292.569 140.092 294.587 138.868 295.72 136.42H308.096C307.461 138.913 306.305 141.157 304.628 143.152C302.996 145.147 300.933 146.711 298.44 147.844C295.947 148.977 293.159 149.544 290.076 149.544C286.359 149.544 283.049 148.751 280.148 147.164C277.247 145.577 274.98 143.311 273.348 140.364C271.716 137.417 270.9 133.972 270.9 130.028C270.9 126.084 271.693 122.639 273.28 119.692C274.912 116.745 277.179 114.479 280.08 112.892C282.981 111.305 286.313 110.512 290.076 110.512C293.748 110.512 297.012 111.283 299.868 112.824C302.724 114.365 304.945 116.564 306.532 119.42C308.164 122.276 308.98 125.608 308.98 129.416ZM297.08 126.356C297.08 124.361 296.4 122.775 295.04 121.596C293.68 120.417 291.98 119.828 289.94 119.828C287.991 119.828 286.336 120.395 284.976 121.528C283.661 122.661 282.845 124.271 282.528 126.356H297.08ZM363.53 110.648C368.245 110.648 371.985 112.076 374.75 114.932C377.561 117.788 378.966 121.755 378.966 126.832V149H367.406V128.396C367.406 125.948 366.749 124.067 365.434 122.752C364.165 121.392 362.397 120.712 360.13 120.712C357.864 120.712 356.073 121.392 354.758 122.752C353.489 124.067 352.854 125.948 352.854 128.396V149H341.294V128.396C341.294 125.948 340.637 124.067 339.322 122.752C338.053 121.392 336.285 120.712 334.018 120.712C331.752 120.712 329.961 121.392 328.646 122.752C327.377 124.067 326.742 125.948 326.742 128.396V149H315.114V111.056H326.742V115.816C327.921 114.229 329.462 112.983 331.366 112.076C333.27 111.124 335.424 110.648 337.826 110.648C340.682 110.648 343.221 111.26 345.442 112.484C347.709 113.708 349.477 115.453 350.746 117.72C352.061 115.635 353.852 113.935 356.118 112.62C358.385 111.305 360.856 110.648 363.53 110.648ZM422.867 129.416C422.867 130.504 422.799 131.637 422.663 132.816H396.347C396.528 135.173 397.276 136.987 398.591 138.256C399.951 139.48 401.605 140.092 403.555 140.092C406.456 140.092 408.473 138.868 409.607 136.42H421.983C421.348 138.913 420.192 141.157 418.515 143.152C416.883 145.147 414.82 146.711 412.327 147.844C409.833 148.977 407.045 149.544 403.963 149.544C400.245 149.544 396.936 148.751 394.035 147.164C391.133 145.577 388.867 143.311 387.235 140.364C385.603 137.417 384.787 133.972 384.787 130.028C384.787 126.084 385.58 122.639 387.167 119.692C388.799 116.745 391.065 114.479 393.967 112.892C396.868 111.305 400.2 110.512 403.963 110.512C407.635 110.512 410.899 111.283 413.755 112.824C416.611 114.365 418.832 116.564 420.419 119.42C422.051 122.276 422.867 125.608 422.867 129.416ZM410.967 126.356C410.967 124.361 410.287 122.775 408.927 121.596C407.567 120.417 405.867 119.828 403.827 119.828C401.877 119.828 400.223 120.395 398.863 121.528C397.548 122.661 396.732 124.271 396.415 126.356H410.967ZM455.039 140.024H470.271V149H443.411V101.264H455.039V140.024ZM473.506 129.96C473.506 126.061 474.231 122.639 475.682 119.692C477.178 116.745 479.195 114.479 481.734 112.892C484.272 111.305 487.106 110.512 490.234 110.512C492.908 110.512 495.243 111.056 497.238 112.144C499.278 113.232 500.842 114.66 501.93 116.428V111.056H513.558V149H501.93V143.628C500.796 145.396 499.21 146.824 497.17 147.912C495.175 149 492.84 149.544 490.166 149.544C487.083 149.544 484.272 148.751 481.734 147.164C479.195 145.532 477.178 143.243 475.682 140.296C474.231 137.304 473.506 133.859 473.506 129.96ZM501.93 130.028C501.93 127.127 501.114 124.837 499.482 123.16C497.895 121.483 495.946 120.644 493.634 120.644C491.322 120.644 489.35 121.483 487.718 123.16C486.131 124.792 485.338 127.059 485.338 129.96C485.338 132.861 486.131 135.173 487.718 136.896C489.35 138.573 491.322 139.412 493.634 139.412C495.946 139.412 497.895 138.573 499.482 136.896C501.114 135.219 501.93 132.929 501.93 130.028ZM533.598 116.428C534.686 114.66 536.25 113.232 538.29 112.144C540.33 111.056 542.665 110.512 545.294 110.512C548.422 110.512 551.255 111.305 553.794 112.892C556.333 114.479 558.327 116.745 559.778 119.692C561.274 122.639 562.022 126.061 562.022 129.96C562.022 133.859 561.274 137.304 559.778 140.296C558.327 143.243 556.333 145.532 553.794 147.164C551.255 148.751 548.422 149.544 545.294 149.544C542.619 149.544 540.285 149.023 538.29 147.98C536.295 146.892 534.731 145.464 533.598 143.696V149H521.97V98.68H533.598V116.428ZM550.19 129.96C550.19 127.059 549.374 124.792 547.742 123.16C546.155 121.483 544.183 120.644 541.826 120.644C539.514 120.644 537.542 121.483 535.91 123.16C534.323 124.837 533.53 127.127 533.53 130.028C533.53 132.929 534.323 135.219 535.91 136.896C537.542 138.573 539.514 139.412 541.826 139.412C544.138 139.412 546.11 138.573 547.742 136.896C549.374 135.173 550.19 132.861 550.19 129.96ZM606.876 149L596.948 130.98H594.16V149H582.532V101.264H602.048C605.811 101.264 609.007 101.921 611.636 103.236C614.311 104.551 616.306 106.364 617.62 108.676C618.935 110.943 619.592 113.481 619.592 116.292C619.592 119.465 618.686 122.299 616.872 124.792C615.104 127.285 612.475 129.053 608.984 130.096L620 149H606.876ZM594.16 122.752H601.368C603.499 122.752 605.086 122.231 606.128 121.188C607.216 120.145 607.76 118.672 607.76 116.768C607.76 114.955 607.216 113.527 606.128 112.484C605.086 111.441 603.499 110.92 601.368 110.92H594.16V122.752ZM662.66 129.416C662.66 130.504 662.592 131.637 662.456 132.816H636.14C636.321 135.173 637.069 136.987 638.384 138.256C639.744 139.48 641.398 140.092 643.348 140.092C646.249 140.092 648.266 138.868 649.4 136.42H661.776C661.141 138.913 659.985 141.157 658.308 143.152C656.676 145.147 654.613 146.711 652.12 147.844C649.626 148.977 646.838 149.544 643.756 149.544C640.038 149.544 636.729 148.751 633.828 147.164C630.926 145.577 628.66 143.311 627.028 140.364C625.396 137.417 624.58 133.972 624.58 130.028C624.58 126.084 625.373 122.639 626.96 119.692C628.592 116.745 630.858 114.479 633.76 112.892C636.661 111.305 639.993 110.512 643.756 110.512C647.428 110.512 650.692 111.283 653.548 112.824C656.404 114.365 658.625 116.564 660.212 119.42C661.844 122.276 662.66 125.608 662.66 129.416ZM650.76 126.356C650.76 124.361 650.08 122.775 648.72 121.596C647.36 120.417 645.66 119.828 643.62 119.828C641.67 119.828 640.016 120.395 638.656 121.528C637.341 122.661 636.525 124.271 636.208 126.356H650.76ZM680.422 98.68V149H668.794V98.68H680.422ZM706.121 149.544C702.403 149.544 699.049 148.751 696.057 147.164C693.11 145.577 690.775 143.311 689.053 140.364C687.375 137.417 686.537 133.972 686.537 130.028C686.537 126.129 687.398 122.707 689.121 119.76C690.843 116.768 693.201 114.479 696.193 112.892C699.185 111.305 702.539 110.512 706.257 110.512C709.974 110.512 713.329 111.305 716.321 112.892C719.313 114.479 721.67 116.768 723.393 119.76C725.115 122.707 725.977 126.129 725.977 130.028C725.977 133.927 725.093 137.372 723.325 140.364C721.602 143.311 719.222 145.577 716.185 147.164C713.193 148.751 709.838 149.544 706.121 149.544ZM706.121 139.48C708.342 139.48 710.223 138.664 711.765 137.032C713.351 135.4 714.145 133.065 714.145 130.028C714.145 126.991 713.374 124.656 711.833 123.024C710.337 121.392 708.478 120.576 706.257 120.576C703.99 120.576 702.109 121.392 700.613 123.024C699.117 124.611 698.369 126.945 698.369 130.028C698.369 133.065 699.094 135.4 700.545 137.032C702.041 138.664 703.899 139.48 706.121 139.48ZM729.834 129.96C729.834 126.061 730.559 122.639 732.01 119.692C733.506 116.745 735.523 114.479 738.062 112.892C740.6 111.305 743.434 110.512 746.562 110.512C749.236 110.512 751.571 111.056 753.566 112.144C755.606 113.232 757.17 114.66 758.258 116.428V111.056H769.886V149H758.258V143.628C757.124 145.396 755.538 146.824 753.498 147.912C751.503 149 749.168 149.544 746.494 149.544C743.411 149.544 740.6 148.751 738.062 147.164C735.523 145.532 733.506 143.243 732.01 140.296C730.559 137.304 729.834 133.859 729.834 129.96ZM758.258 130.028C758.258 127.127 757.442 124.837 755.81 123.16C754.223 121.483 752.274 120.644 749.962 120.644C747.65 120.644 745.678 121.483 744.046 123.16C742.459 124.792 741.666 127.059 741.666 129.96C741.666 132.861 742.459 135.173 744.046 136.896C745.678 138.573 747.65 139.412 749.962 139.412C752.274 139.412 754.223 138.573 755.81 136.896C757.442 135.219 758.258 132.929 758.258 130.028ZM775.986 129.96C775.986 126.061 776.711 122.639 778.162 119.692C779.658 116.745 781.675 114.479 784.214 112.892C786.753 111.305 789.586 110.512 792.714 110.512C795.207 110.512 797.474 111.033 799.514 112.076C801.599 113.119 803.231 114.524 804.41 116.292V98.68H816.038V149H804.41V143.56C803.322 145.373 801.758 146.824 799.718 147.912C797.723 149 795.389 149.544 792.714 149.544C789.586 149.544 786.753 148.751 784.214 147.164C781.675 145.532 779.658 143.243 778.162 140.296C776.711 137.304 775.986 133.859 775.986 129.96ZM804.41 130.028C804.41 127.127 803.594 124.837 801.962 123.16C800.375 121.483 798.426 120.644 796.114 120.644C793.802 120.644 791.83 121.483 790.198 123.16C788.611 124.792 787.818 127.059 787.818 129.96C787.818 132.861 788.611 135.173 790.198 136.896C791.83 138.573 793.802 139.412 796.114 139.412C798.426 139.412 800.375 138.573 801.962 136.896C803.594 135.219 804.41 132.929 804.41 130.028ZM860.218 129.416C860.218 130.504 860.15 131.637 860.014 132.816H833.698C833.88 135.173 834.628 136.987 835.942 138.256C837.302 139.48 838.957 140.092 840.906 140.092C843.808 140.092 845.825 138.868 846.958 136.42H859.334C858.7 138.913 857.544 141.157 855.866 143.152C854.234 145.147 852.172 146.711 849.678 147.844C847.185 148.977 844.397 149.544 841.314 149.544C837.597 149.544 834.288 148.751 831.386 147.164C828.485 145.577 826.218 143.311 824.586 140.364C822.954 137.417 822.138 133.972 822.138 130.028C822.138 126.084 822.932 122.639 824.518 119.692C826.15 116.745 828.417 114.479 831.318 112.892C834.22 111.305 837.552 110.512 841.314 110.512C844.986 110.512 848.25 111.283 851.106 112.824C853.962 114.365 856.184 116.564 857.77 119.42C859.402 122.276 860.218 125.608 860.218 129.416ZM848.318 126.356C848.318 124.361 847.638 122.775 846.278 121.596C844.918 120.417 843.218 119.828 841.178 119.828C839.229 119.828 837.574 120.395 836.214 121.528C834.9 122.661 834.084 124.271 833.766 126.356H848.318ZM877.981 117.38C879.341 115.295 881.041 113.663 883.081 112.484C885.121 111.26 887.387 110.648 889.881 110.648V122.956H886.685C883.783 122.956 881.607 123.591 880.157 124.86C878.706 126.084 877.981 128.26 877.981 131.388V149H866.353V111.056H877.981V117.38Z" fill="#6E78FF"/>
<g filter="url(#filter0_d)">
<path d="M37 122.887C37 115.312 42.7894 108.992 50.3359 108.33L94 104.5L121.441 101.852C122.146 101.784 122.845 101.662 123.531 101.487L130.605 99.6855C138.407 97.6982 145.244 105.266 142.478 112.827V112.827C141.839 114.574 140.725 116.109 139.262 117.259L128.528 125.692C127.844 126.23 127.117 126.711 126.354 127.13L111.101 135.519C108.739 136.819 106.086 137.5 103.39 137.5H51.6129C43.5424 137.5 37 130.958 37 122.887V122.887Z" fill="#6E78FF"/>
</g>
<circle cx="87.5" cy="86.5" r="69.5" fill="#6E78FF"/>
<path d="M122.2 83.2055C121.192 83.2055 120.226 83.6059 119.513 84.3185C118.8 85.0312 118.4 85.9977 118.4 87.0055C118.445 94.123 116.007 101.034 111.505 106.547C107.004 112.06 100.721 115.831 93.7379 117.21C86.7551 118.589 79.51 117.49 73.2503 114.102C66.9907 110.715 62.1083 105.25 59.4442 98.6497C56.7801 92.0494 56.501 84.7267 58.655 77.9428C60.8089 71.1589 65.2611 65.3385 71.2447 61.4839C77.2283 57.6294 84.3687 55.982 91.4362 56.8256C98.5037 57.6692 105.056 60.9509 109.964 66.1055H100.844C99.8362 66.1055 98.8696 66.5059 98.157 67.2185C97.4444 67.9312 97.044 68.8977 97.044 69.9055C97.044 70.9134 97.4444 71.8799 98.157 72.5925C98.8696 73.3052 99.8362 73.7055 100.844 73.7055H118.058C119.066 73.7055 120.032 73.3052 120.745 72.5925C121.458 71.8799 121.858 70.9134 121.858 69.9055V52.8056C121.858 51.7977 121.458 50.8312 120.745 50.1186C120.032 49.4059 119.066 49.0056 118.058 49.0056C117.05 49.0056 116.084 49.4059 115.371 50.1186C114.658 50.8312 114.258 51.7977 114.258 52.8056V59.5316C107.93 53.4822 99.7068 49.8034 90.9793 49.117C82.2517 48.4306 73.5548 50.7788 66.3587 55.7646C59.1626 60.7503 53.9087 68.0679 51.4852 76.4803C49.0616 84.8926 49.617 93.8838 53.0575 101.934C56.498 109.984 62.6126 116.599 70.3676 120.661C78.1226 124.724 87.0424 125.984 95.6192 124.228C104.196 122.473 111.904 117.81 117.439 111.028C122.975 104.246 125.999 95.76 126 87.0055C126 85.9977 125.6 85.0312 124.887 84.3185C124.174 83.6059 123.208 83.2055 122.2 83.2055Z" fill="white"/>
<defs>
<filter id="filter0_d" x="7" y="84.3638" width="166.104" height="98.1362" filterUnits="userSpaceOnUse" color-interpolation-filters="sRGB">
<feFlood flood-opacity="0" result="BackgroundImageFix"/>
<feColorMatrix in="SourceAlpha" type="matrix" values="0 0 0 0 0 0 0 0 0 0 0 0 0 0 0 0 0 0 127 0"/>
<feOffset dy="15"/>
<feGaussianBlur stdDeviation="15"/>
<feColorMatrix type="matrix" values="0 0 0 0 0 0 0 0 0 0.0839841 0 0 0 0 1 0 0 0 0.4 0"/>
<feBlend mode="normal" in2="BackgroundImageFix" result="effect1_dropShadow"/>
<feBlend mode="normal" in="SourceGraphic" in2="effect1_dropShadow" result="shape"/>
</filter>
</defs>
</svg>
